<?xml version="1.0" encoding="UTF-8" standalone="no"?>
<!-- Created with Inkscape (http://www.inkscape.org/) -->

<svg
   xmlns:dc="http://purl.org/dc/elements/1.1/"
   xmlns:cc="http://creativecommons.org/ns#"
   xmlns:rdf="http://www.w3.org/1999/02/22-rdf-syntax-ns#"
   xmlns:svg="http://www.w3.org/2000/svg"
   xmlns="http://www.w3.org/2000/svg"
   xmlns:sodipodi="http://sodipodi.sourceforge.net/DTD/sodipodi-0.dtd"
   xmlns:inkscape="http://www.inkscape.org/namespaces/inkscape"
   version="1.1"
   id="svg2"
   xml:space="preserve"
   width="746.89331"
   height="824.25336"
   viewBox="0 0 746.89331 824.25336"
   sodipodi:docname="ifg_branca.svg"
   inkscape:version="0.92.3 (2405546, 2018-03-11)"><metadata
     id="metadata8"><rdf:RDF><cc:Work
         rdf:about=""><dc:format>image/svg+xml</dc:format><dc:type
           rdf:resource="http://purl.org/dc/dcmitype/StillImage" /><dc:title></dc:title></cc:Work></rdf:RDF></metadata><defs
     id="defs6" /><sodipodi:namedview
     pagecolor="#ffffff"
     bordercolor="#666666"
     borderopacity="1"
     objecttolerance="10"
     gridtolerance="10"
     guidetolerance="10"
     inkscape:pageopacity="0"
     inkscape:pageshadow="2"
     inkscape:window-width="1366"
     inkscape:window-height="723"
     id="namedview4"
     showgrid="false"
     inkscape:zoom="0.80983449"
     inkscape:cx="217.40791"
     inkscape:cy="418.25127"
     inkscape:window-x="0"
     inkscape:window-y="21"
     inkscape:window-maximized="1"
     inkscape:current-layer="g10" /><g
     id="g10"
     inkscape:groupmode="layer"
     inkscape:label="ink_ext_XXXXXX"
     transform="matrix(1.3333333,0,0,-1.3333333,0,824.25333)"><path
       d="m 83.626911,265.76269 c 0,-1.163 -0.9679,-1.937 -1.9347,-1.937 h -16.6504 c -1.161,0 -1.9363,0.968 -1.9363,1.937 v 16.648 c 0,1.161 0.9687,1.936 1.9363,1.936 h 16.6504 c 1.1601,0 1.9347,-0.967 1.9347,-1.936 v -16.648"
       style="fill:#ffffff;fill-opacity:1;fill-rule:nonzero;stroke:none;stroke-width:0.1"
       id="path256"
       inkscape:connector-curvature="0" /><path
       d="m 108.40681,265.76269 c 0,-1.163 -0.966,-1.937 -1.9361,-1.937 H 89.822311 c -1.1622,0 -1.9348,0.968 -1.9348,1.937 v 16.648 c 0,1.161 0.9668,1.936 1.9348,1.936 h 16.648399 c 1.1621,0 1.9361,-0.967 1.9361,-1.936 v -16.648"
       style="fill:#ffffff;fill-opacity:1;fill-rule:nonzero;stroke:none;stroke-width:0.1"
       id="path258"
       inkscape:connector-curvature="0" /><path
       d="m 108.40681,216.20069 c 0,-1.161 -0.966,-1.937 -1.9361,-1.937 H 89.822311 c -1.1622,0 -1.9348,0.969 -1.9348,1.937 v 16.647 c 0,1.164 0.9668,1.939 1.9348,1.939 h 16.648399 c 1.1621,0 1.9361,-0.969 1.9361,-1.939 v -16.647"
       style="fill:#ffffff;fill-opacity:1;fill-rule:nonzero;stroke:none;stroke-width:0.1"
       id="path260"
       inkscape:connector-curvature="0" /><path
       d="m 58.847611,241.17669 c 0,-1.163 -0.9687,-1.937 -1.9355,-1.937 H 40.261707 c -1.1613,0 -1.9355,0.967 -1.9355,1.937 v 16.648 c 0,1.16 0.9675,1.937 1.9355,1.937 h 16.649204 c 1.1614,0 1.9367,-0.97 1.9367,-1.937 v -16.648"
       style="fill:#ffffff;fill-opacity:1;fill-rule:nonzero;stroke:none;stroke-width:0.1"
       id="path262"
       inkscape:connector-curvature="0" /><path
       d="m 83.626911,241.17669 c 0,-1.163 -0.9679,-1.937 -1.9347,-1.937 h -16.6504 c -1.161,0 -1.9363,0.967 -1.9363,1.937 v 16.648 c 0,1.16 0.9687,1.937 1.9363,1.937 h 16.6504 c 1.1601,0 1.9347,-0.97 1.9347,-1.937 v -16.648"
       style="fill:#ffffff;fill-opacity:1;fill-rule:nonzero;stroke:none;stroke-width:0.1"
       id="path264"
       inkscape:connector-curvature="0" /><path
       d="m 58.847611,216.20069 c 0,-1.161 -0.9687,-1.937 -1.9355,-1.937 H 40.261707 c -1.1613,0 -1.9355,0.969 -1.9355,1.937 v 16.647 c 0,1.164 0.9675,1.939 1.9355,1.939 h 16.649204 c 1.1614,0 1.9367,-0.969 1.9367,-1.939 v -16.647"
       style="fill:#ffffff;fill-opacity:1;fill-rule:nonzero;stroke:none;stroke-width:0.1"
       id="path266"
       inkscape:connector-curvature="0" /><path
       d="m 83.626911,216.20069 c 0,-1.161 -0.9679,-1.937 -1.9347,-1.937 h -16.6504 c -1.161,0 -1.9363,0.969 -1.9363,1.937 v 16.647 c 0,1.164 0.9687,1.939 1.9363,1.939 h 16.6504 c 1.1601,0 1.9347,-0.969 1.9347,-1.939 v -16.647"
       style="fill:#ffffff;fill-opacity:1;fill-rule:nonzero;stroke:none;stroke-width:0.1"
       id="path268"
       inkscape:connector-curvature="0" /><path
       d="m 58.847611,191.42069 c 0,-1.162 -0.9687,-1.936 -1.9355,-1.936 H 40.261707 c -1.1613,0 -1.9355,0.969 -1.9355,1.936 v 16.651 c 0,1.157 0.9675,1.934 1.9355,1.934 h 16.649204 c 1.1614,0 1.9367,-0.968 1.9367,-1.934 v -16.651"
       style="fill:#ffffff;fill-opacity:1;fill-rule:nonzero;stroke:none;stroke-width:0.1"
       id="path270"
       inkscape:connector-curvature="0" /><path
       d="m 83.626911,191.42069 c 0,-1.162 -0.9679,-1.936 -1.9347,-1.936 h -16.6504 c -1.161,0 -1.9363,0.969 -1.9363,1.936 v 16.651 c 0,1.157 0.9687,1.934 1.9363,1.934 h 16.6504 c 1.1601,0 1.9347,-0.968 1.9347,-1.934 v -16.651"
       style="fill:#ffffff;fill-opacity:1;fill-rule:nonzero;stroke:none;stroke-width:0.1"
       id="path272"
       inkscape:connector-curvature="0" /><path
       d="m 60.008611,274.08569 c 0,-6.194 -5.034,-11.423 -11.421904,-11.423 -6.1941,0 -11.4219,5.035 -11.4219,11.423 0,6.195 5.0332,11.423 11.4219,11.423 6.195304,0 11.421904,-5.034 11.421904,-11.423"
       style="fill:#ffffff;fill-opacity:1;fill-rule:nonzero;stroke:none;stroke-width:0.1"
       id="path274"
       inkscape:connector-curvature="0" /><path
       d="m 121.55681,239.07069 v 15.429 h 3.277 v -15.429 h -3.277"
       style="fill:#ffffff;fill-opacity:1;fill-rule:nonzero;stroke:none;stroke-width:0.1"
       id="path276"
       inkscape:connector-curvature="0" /><path
       d="m 142.44381,239.07069 h -4.166 l -6.724,11.672 h -0.095 c 0.134,-2.062 0.201,-3.532 0.201,-4.411 v -7.261 h -2.928 v 15.429 h 4.133 l 6.714,-11.556 h 0.072 c -0.105,2.005 -0.157,3.423 -0.157,4.253 v 7.303 h 2.95 v -15.429"
       style="fill:#ffffff;fill-opacity:1;fill-rule:nonzero;stroke:none;stroke-width:0.1"
       id="path278"
       inkscape:connector-curvature="0" /><path
       d="m 155.45781,243.35469 c 0,-1.392 -0.502,-2.49 -1.508,-3.292 -1.004,-0.802 -2.401,-1.203 -4.19,-1.203 -1.65,0 -3.109,0.309 -4.377,0.929 v 3.038 c 1.041,-0.463 1.924,-0.791 2.649,-0.981 0.721,-0.19 1.383,-0.285 1.98,-0.285 0.719,0 1.27,0.138 1.655,0.412 0.384,0.274 0.576,0.682 0.576,1.224 0,0.302 -0.084,0.571 -0.254,0.808 -0.17,0.236 -0.418,0.462 -0.744,0.68 -0.328,0.218 -0.996,0.566 -2.004,1.045 -0.945,0.443 -1.653,0.869 -2.125,1.277 -0.473,0.407 -0.85,0.883 -1.131,1.424 -0.283,0.542 -0.424,1.175 -0.424,1.9 0,1.365 0.463,2.438 1.391,3.219 0.927,0.781 2.207,1.172 3.844,1.172 0.802,0 1.57,-0.096 2.298,-0.285 0.729,-0.19 1.493,-0.458 2.289,-0.802 l -1.058,-2.544 c -0.824,0.338 -1.506,0.574 -2.045,0.707 -0.539,0.134 -1.07,0.201 -1.592,0.201 -0.619,0 -1.096,-0.145 -1.426,-0.433 -0.332,-0.289 -0.496,-0.665 -0.496,-1.129 0,-0.289 0.067,-0.541 0.199,-0.755 0.135,-0.214 0.348,-0.422 0.641,-0.622 0.293,-0.201 0.984,-0.562 2.076,-1.082 1.446,-0.69 2.436,-1.381 2.971,-2.073 0.537,-0.695 0.805,-1.544 0.805,-2.55"
       style="fill:#ffffff;fill-opacity:1;fill-rule:nonzero;stroke:none;stroke-width:0.1"
       id="path280"
       inkscape:connector-curvature="0" /><path
       d="m 164.36581,239.07069 h -3.278 v 12.706 h -4.197 v 2.723 h 11.672 v -2.723 h -4.197 v -12.706"
       style="fill:#ffffff;fill-opacity:1;fill-rule:nonzero;stroke:none;stroke-width:0.1"
       id="path282"
       inkscape:connector-curvature="0" /><path
       d="m 170.93981,239.07069 v 15.429 h 3.277 v -15.429 h -3.277"
       style="fill:#ffffff;fill-opacity:1;fill-rule:nonzero;stroke:none;stroke-width:0.1"
       id="path284"
       inkscape:connector-curvature="0" /><path
       d="m 184.07081,239.07069 h -3.277 v 12.706 h -4.198 v 2.723 h 11.672 v -2.723 h -4.197 v -12.706"
       style="fill:#ffffff;fill-opacity:1;fill-rule:nonzero;stroke:none;stroke-width:0.1"
       id="path286"
       inkscape:connector-curvature="0" /><path
       d="m 203.17381,254.49969 v -9.984 c 0,-1.14 -0.255,-2.139 -0.767,-2.996 -0.51,-0.859 -1.248,-1.518 -2.213,-1.974 -0.967,-0.458 -2.107,-0.686 -3.426,-0.686 -1.988,0 -3.531,0.508 -4.629,1.524 -1.101,1.017 -1.65,2.409 -1.65,4.175 v 9.941 h 3.265 v -9.445 c 0,-1.189 0.241,-2.062 0.719,-2.618 0.481,-0.556 1.274,-0.834 2.381,-0.834 1.07,0 1.848,0.281 2.33,0.84 0.483,0.559 0.725,1.437 0.725,2.633 v 9.424 h 3.265"
       style="fill:#ffffff;fill-opacity:1;fill-rule:nonzero;stroke:none;stroke-width:0.1"
       id="path288"
       inkscape:connector-curvature="0" /><path
       d="m 213.03981,239.07069 h -3.278 v 12.706 h -4.197 v 2.723 h 11.672 v -2.723 h -4.197 v -12.706"
       style="fill:#ffffff;fill-opacity:1;fill-rule:nonzero;stroke:none;stroke-width:0.1"
       id="path290"
       inkscape:connector-curvature="0" /><path
       d="m 222.43181,246.80569 c 0,-1.724 0.326,-3.021 0.983,-3.894 0.656,-0.873 1.634,-1.309 2.939,-1.309 2.613,0 3.92,1.735 3.92,5.203 0,3.476 -1.299,5.214 -3.9,5.214 -1.303,0 -2.287,-0.439 -2.95,-1.314 -0.662,-0.876 -0.992,-2.176 -0.992,-3.9 z m 11.278,0 c 0,-2.554 -0.633,-4.517 -1.903,-5.889 -1.267,-1.371 -3.086,-2.057 -5.453,-2.057 -2.369,0 -4.187,0.686 -5.457,2.057 -1.268,1.372 -1.902,3.343 -1.902,5.911 0,2.567 0.636,4.528 1.908,5.884 1.271,1.354 3.096,2.031 5.471,2.031 2.375,0 4.191,-0.683 5.449,-2.048 1.258,-1.366 1.887,-3.327 1.887,-5.889"
       style="fill:#ffffff;fill-opacity:1;fill-rule:nonzero;stroke:none;stroke-width:0.1"
       id="path292"
       inkscape:connector-curvature="0" /><path
       d="m 245.76181,239.07069 h -3.224 v 15.429 h 8.859 v -2.681 h -5.635 v -3.978 h 5.244 v -2.67 h -5.244 v -6.1"
       style="fill:#ffffff;fill-opacity:1;fill-rule:nonzero;stroke:none;stroke-width:0.1"
       id="path294"
       inkscape:connector-curvature="0" /><path
       d="m 263.49081,239.07069 h -8.903 v 15.429 h 8.903 v -2.681 h -5.625 v -3.388 h 5.234 v -2.68 h -5.234 v -3.979 h 5.625 v -2.701"
       style="fill:#ffffff;fill-opacity:1;fill-rule:nonzero;stroke:none;stroke-width:0.1"
       id="path296"
       inkscape:connector-curvature="0" /><path
       d="m 276.13281,246.84769 c 0,3.314 -1.464,4.971 -4.398,4.971 h -1.744 v -10.047 h 1.406 c 3.156,0 4.736,1.692 4.736,5.076 z m 3.405,0.085 c 0,-2.54 -0.725,-4.485 -2.172,-5.836 -1.449,-1.351 -3.541,-2.026 -6.276,-2.026 h -4.377 v 15.429 h 4.854 c 2.523,0 4.482,-0.666 5.877,-1.994 1.396,-1.33 2.094,-3.188 2.094,-5.573"
       style="fill:#ffffff;fill-opacity:1;fill-rule:nonzero;stroke:none;stroke-width:0.1"
       id="path298"
       inkscape:connector-curvature="0" /><path
       d="m 291.64281,239.07069 h -8.902 v 15.429 h 8.902 v -2.681 h -5.625 v -3.388 h 5.235 v -2.68 h -5.235 v -3.979 h 5.625 v -2.701"
       style="fill:#ffffff;fill-opacity:1;fill-rule:nonzero;stroke:none;stroke-width:0.1"
       id="path300"
       inkscape:connector-curvature="0" /><path
       d="m 298.14281,247.65069 h 1.057 c 1.037,0 1.803,0.172 2.295,0.517 0.494,0.345 0.74,0.887 0.74,1.625 0,0.732 -0.252,1.252 -0.756,1.562 -0.504,0.31 -1.285,0.464 -2.342,0.464 h -0.994 z m 0,-2.66 v -5.92 h -3.277 v 15.429 h 4.504 c 2.099,0 3.654,-0.381 4.662,-1.146 1.008,-0.763 1.512,-1.922 1.512,-3.476 0,-0.908 -0.25,-1.715 -0.75,-2.423 -0.502,-0.707 -1.209,-1.261 -2.125,-1.662 2.326,-3.469 3.839,-5.709 4.544,-6.722 h -3.636 l -3.69,5.92 h -1.744"
       style="fill:#ffffff;fill-opacity:1;fill-rule:nonzero;stroke:none;stroke-width:0.1"
       id="path302"
       inkscape:connector-curvature="0" /><path
       d="m 316.64081,245.48669 c -1.037,3.328 -1.619,5.21 -1.75,5.646 -0.129,0.436 -0.222,0.781 -0.281,1.034 -0.232,-0.9 -0.897,-3.127 -1.996,-6.68 z m 1.903,-6.416 -1.122,3.672 h -5.634 l -1.119,-3.672 h -3.532 l 5.455,15.492 h 4.006 l 5.477,-15.492 h -3.531"
       style="fill:#ffffff;fill-opacity:1;fill-rule:nonzero;stroke:none;stroke-width:0.1"
       id="path304"
       inkscape:connector-curvature="0" /><path
       d="m 324.20981,239.07069 v 15.429 h 3.275 v -12.728 h 6.269 v -2.701 h -9.544"
       style="fill:#ffffff;fill-opacity:1;fill-rule:nonzero;stroke:none;stroke-width:0.1"
       id="path306"
       inkscape:connector-curvature="0" /><path
       d="m 130.97581,222.14469 c 0,3.315 -1.466,4.971 -4.398,4.971 h -1.744 v -10.047 h 1.406 c 3.157,0 4.736,1.693 4.736,5.076 z m 3.405,0.086 c 0,-2.541 -0.726,-4.487 -2.173,-5.837 -1.448,-1.352 -3.54,-2.026 -6.274,-2.026 h -4.377 v 15.43 h 4.852 c 2.523,0 4.483,-0.667 5.878,-1.994 1.395,-1.331 2.094,-3.188 2.094,-5.573"
       style="fill:#ffffff;fill-opacity:1;fill-rule:nonzero;stroke:none;stroke-width:0.1"
       id="path308"
       inkscape:connector-curvature="0" /><path
       d="m 146.48481,214.36769 h -8.902 v 15.43 h 8.902 v -2.682 h -5.625 v -3.388 h 5.234 v -2.68 h -5.234 v -3.979 h 5.625 v -2.701"
       style="fill:#ffffff;fill-opacity:1;fill-rule:nonzero;stroke:none;stroke-width:0.1"
       id="path310"
       inkscape:connector-curvature="0" /><path
       d="m 164.39481,214.36769 h -8.902 v 15.43 h 8.902 v -2.682 h -5.625 v -3.388 h 5.234 v -2.68 h -5.234 v -3.979 h 5.625 v -2.701"
       style="fill:#ffffff;fill-opacity:1;fill-rule:nonzero;stroke:none;stroke-width:0.1"
       id="path312"
       inkscape:connector-curvature="0" /><path
       d="m 177.03981,222.14469 c 0,3.315 -1.467,4.971 -4.399,4.971 h -1.746 v -10.047 h 1.406 c 3.159,0 4.739,1.693 4.739,5.076 z m 3.402,0.086 c 0,-2.541 -0.723,-4.487 -2.172,-5.837 -1.449,-1.352 -3.541,-2.026 -6.275,-2.026 h -4.377 v 15.43 h 4.853 c 2.524,0 4.483,-0.667 5.877,-1.994 1.397,-1.331 2.094,-3.188 2.094,-5.573"
       style="fill:#ffffff;fill-opacity:1;fill-rule:nonzero;stroke:none;stroke-width:0.1"
       id="path314"
       inkscape:connector-curvature="0" /><path
       d="m 196.19381,229.79769 v -9.986 c 0,-1.138 -0.256,-2.139 -0.766,-2.996 -0.513,-0.858 -1.25,-1.517 -2.216,-1.974 -0.965,-0.457 -2.106,-0.686 -3.424,-0.686 -1.987,0 -3.532,0.508 -4.631,1.526 -1.1,1.016 -1.649,2.407 -1.649,4.175 v 9.941 h 3.268 v -9.447 c 0,-1.189 0.238,-2.062 0.719,-2.616 0.478,-0.556 1.269,-0.836 2.377,-0.836 1.07,0 1.847,0.282 2.332,0.841 0.482,0.561 0.722,1.437 0.722,2.633 v 9.425 h 3.268"
       style="fill:#ffffff;fill-opacity:1;fill-rule:nonzero;stroke:none;stroke-width:0.1"
       id="path316"
       inkscape:connector-curvature="0" /><path
       d="m 206.66081,227.29569 c -1.233,0 -2.188,-0.462 -2.864,-1.387 -0.677,-0.926 -1.015,-2.217 -1.015,-3.87 0,-3.44 1.293,-5.159 3.879,-5.159 1.086,0 2.4,0.27 3.945,0.811 v -2.743 c -1.269,-0.528 -2.687,-0.792 -4.25,-0.792 -2.248,0 -3.969,0.682 -5.16,2.043 -1.192,1.36 -1.787,3.315 -1.787,5.862 0,1.605 0.293,3.01 0.877,4.217 0.586,1.206 1.426,2.133 2.521,2.774 1.098,0.644 2.381,0.967 3.854,0.967 1.502,0 3.01,-0.362 4.525,-1.088 l -1.057,-2.66 c -0.578,0.275 -1.16,0.515 -1.746,0.719 -0.584,0.205 -1.158,0.306 -1.722,0.306"
       style="fill:#ffffff;fill-opacity:1;fill-rule:nonzero;stroke:none;stroke-width:0.1"
       id="path318"
       inkscape:connector-curvature="0" /><path
       d="m 221.42381,220.78369 c -1.035,3.329 -1.621,5.21 -1.75,5.645 -0.13,0.438 -0.224,0.783 -0.281,1.036 -0.232,-0.901 -0.898,-3.128 -1.998,-6.681 z m 1.903,-6.416 -1.121,3.672 h -5.635 l -1.119,-3.672 h -3.533 l 5.457,15.493 h 4.005 l 5.477,-15.493 h -3.531"
       style="fill:#ffffff;fill-opacity:1;fill-rule:nonzero;stroke:none;stroke-width:0.1"
       id="path320"
       inkscape:connector-curvature="0" /><path
       d="m 236.98881,211.72869 c 0,-0.901 -0.266,-1.551 -0.797,-1.952 -0.533,-0.4 -1.355,-0.602 -2.469,-0.602 -0.549,0 -1.064,0.074 -1.545,0.222 v 1.774 c 0.192,-0.051 0.448,-0.099 0.768,-0.15 0.32,-0.048 0.568,-0.072 0.744,-0.072 0.508,0 0.762,0.217 0.762,0.653 0,0.584 -0.584,0.965 -1.754,1.141 l 0.824,1.625 h 2.039 l -0.283,-0.645 c 0.521,-0.167 0.935,-0.431 1.246,-0.785 0.311,-0.356 0.465,-0.758 0.465,-1.209 z m -1.629,15.567 c -1.232,0 -2.186,-0.462 -2.863,-1.387 -0.676,-0.926 -1.016,-2.217 -1.016,-3.87 0,-3.44 1.293,-5.159 3.879,-5.159 1.088,0 2.4,0.27 3.945,0.811 v -2.743 c -1.269,-0.528 -2.687,-0.792 -4.25,-0.792 -2.248,0 -3.967,0.682 -5.16,2.043 -1.189,1.36 -1.785,3.315 -1.785,5.862 0,1.605 0.291,3.01 0.877,4.217 0.586,1.206 1.426,2.133 2.519,2.774 1.098,0.644 2.381,0.967 3.854,0.967 1.504,0 3.01,-0.362 4.525,-1.088 l -1.056,-2.66 c -0.578,0.275 -1.158,0.515 -1.744,0.719 -0.586,0.205 -1.161,0.306 -1.725,0.306"
       style="fill:#ffffff;fill-opacity:1;fill-rule:nonzero;stroke:none;stroke-width:0.1"
       id="path322"
       inkscape:connector-curvature="0" /><path
       d="m 250.12581,220.78369 c -1.038,3.329 -1.62,5.21 -1.75,5.645 -0.131,0.438 -0.223,0.783 -0.282,1.036 -0.232,-0.901 -0.896,-3.128 -1.996,-6.681 z m -3.764,11.357 c -0.219,0 -0.428,-0.094 -0.629,-0.282 -0.201,-0.184 -0.348,-0.468 -0.439,-0.848 h -1.577 c 0.079,1.02 0.37,1.818 0.875,2.396 0.502,0.576 1.17,0.864 2.002,0.864 0.289,0 0.573,-0.057 0.852,-0.174 0.277,-0.116 0.553,-0.242 0.824,-0.38 0.272,-0.137 0.537,-0.262 0.797,-0.373 0.262,-0.113 0.52,-0.17 0.771,-0.17 0.221,0 0.43,0.092 0.629,0.275 0.202,0.182 0.348,0.464 0.44,0.844 h 1.576 c -0.078,-1.02 -0.373,-1.818 -0.883,-2.397 -0.512,-0.575 -1.176,-0.863 -1.994,-0.863 -0.289,0 -0.572,0.057 -0.85,0.173 -0.279,0.118 -0.552,0.242 -0.824,0.381 -0.273,0.136 -0.539,0.263 -0.799,0.378 -0.261,0.116 -0.519,0.176 -0.771,0.176 z m 5.666,-17.773 -1.121,3.672 h -5.635 l -1.119,-3.672 h -3.531 l 5.453,15.493 h 4.008 l 5.476,-15.493 h -3.531"
       style="fill:#ffffff;fill-opacity:1;fill-rule:nonzero;stroke:none;stroke-width:0.1"
       id="path324"
       inkscape:connector-curvature="0" /><path
       d="m 260.25281,222.10269 c 0,-1.723 0.328,-3.02 0.982,-3.893 0.656,-0.873 1.637,-1.311 2.939,-1.311 2.616,0 3.922,1.736 3.922,5.204 0,3.475 -1.3,5.214 -3.9,5.214 -1.305,0 -2.287,-0.439 -2.949,-1.314 -0.662,-0.875 -0.994,-2.176 -0.994,-3.9 z m 11.279,0 c 0,-2.554 -0.633,-4.517 -1.903,-5.889 -1.269,-1.372 -3.087,-2.058 -5.455,-2.058 -2.367,0 -4.185,0.686 -5.455,2.058 -1.269,1.372 -1.902,3.344 -1.902,5.911 0,2.568 0.637,4.529 1.908,5.883 1.274,1.354 3.096,2.031 5.471,2.031 2.375,0 4.191,-0.681 5.449,-2.046 1.258,-1.366 1.887,-3.329 1.887,-5.89"
       style="fill:#ffffff;fill-opacity:1;fill-rule:nonzero;stroke:none;stroke-width:0.1"
       id="path326"
       inkscape:connector-curvature="0" /><path
       d="m 277.85781,216.63569 c -0.365,-1.42 -0.986,-3.106 -1.859,-5.054 h -2.327 c 0.459,1.871 0.815,3.636 1.069,5.298 h 2.959 l 0.158,-0.244"
       style="fill:#ffffff;fill-opacity:1;fill-rule:nonzero;stroke:none;stroke-width:0.1"
       id="path328"
       inkscape:connector-curvature="0" /><path
       d="m 293.34381,227.29569 c -1.232,0 -2.187,-0.462 -2.863,-1.387 -0.676,-0.926 -1.016,-2.217 -1.016,-3.87 0,-3.44 1.295,-5.159 3.879,-5.159 1.086,0 2.401,0.27 3.946,0.811 v -2.743 c -1.27,-0.528 -2.688,-0.792 -4.25,-0.792 -2.25,0 -3.969,0.682 -5.161,2.043 -1.189,1.36 -1.787,3.315 -1.787,5.862 0,1.605 0.293,3.01 0.879,4.217 0.586,1.206 1.424,2.133 2.52,2.774 1.097,0.644 2.381,0.967 3.853,0.967 1.502,0 3.01,-0.362 4.526,-1.088 l -1.057,-2.66 c -0.578,0.275 -1.16,0.515 -1.746,0.719 -0.584,0.205 -1.156,0.306 -1.723,0.306"
       style="fill:#ffffff;fill-opacity:1;fill-rule:nonzero;stroke:none;stroke-width:0.1"
       id="path330"
       inkscape:connector-curvature="0" /><path
       d="m 300.57681,214.36769 v 15.43 h 3.275 v -15.43 h -3.275"
       style="fill:#ffffff;fill-opacity:1;fill-rule:nonzero;stroke:none;stroke-width:0.1"
       id="path332"
       inkscape:connector-curvature="0" /><path
       d="m 316.64481,214.36769 h -8.902 v 15.43 h 8.902 v -2.682 h -5.623 v -3.388 h 5.231 v -2.68 h -5.231 v -3.979 h 5.623 z m -1.955,16.665 c -1.107,0.653 -1.934,1.273 -2.475,1.855 -0.548,-0.569 -1.357,-1.187 -2.421,-1.855 h -2.145 v 0.283 c 1.332,1.33 2.234,2.39 2.707,3.177 h 3.772 c 0.22,-0.365 0.597,-0.864 1.138,-1.493 0.539,-0.631 1.063,-1.191 1.569,-1.684 v -0.283 h -2.145"
       style="fill:#ffffff;fill-opacity:1;fill-rule:nonzero;stroke:none;stroke-width:0.1"
       id="path334"
       inkscape:connector-curvature="0" /><path
       d="m 333.65281,214.36769 h -4.164 l -6.723,11.672 h -0.097 c 0.132,-2.062 0.201,-3.532 0.201,-4.411 v -7.261 h -2.928 v 15.43 h 4.133 l 6.715,-11.557 h 0.072 c -0.106,2.005 -0.158,3.422 -0.158,4.254 v 7.303 h 2.949 v -15.43"
       style="fill:#ffffff;fill-opacity:1;fill-rule:nonzero;stroke:none;stroke-width:0.1"
       id="path336"
       inkscape:connector-curvature="0" /><path
       d="m 344.15281,227.29569 c -1.234,0 -2.188,-0.462 -2.865,-1.387 -0.676,-0.926 -1.014,-2.217 -1.014,-3.87 0,-3.44 1.293,-5.159 3.879,-5.159 1.086,0 2.4,0.27 3.943,0.811 v -2.743 c -1.267,-0.528 -2.685,-0.792 -4.25,-0.792 -2.248,0 -3.967,0.682 -5.158,2.043 -1.191,1.36 -1.787,3.315 -1.787,5.862 0,1.605 0.293,3.01 0.879,4.217 0.584,1.206 1.424,2.133 2.519,2.774 1.096,0.644 2.381,0.967 3.854,0.967 1.5,0 3.01,-0.362 4.525,-1.088 l -1.056,-2.66 c -0.578,0.275 -1.162,0.515 -1.746,0.719 -0.584,0.205 -1.159,0.306 -1.723,0.306"
       style="fill:#ffffff;fill-opacity:1;fill-rule:nonzero;stroke:none;stroke-width:0.1"
       id="path338"
       inkscape:connector-curvature="0" /><path
       d="m 351.38281,214.36769 v 15.43 h 3.278 v -15.43 h -3.278"
       style="fill:#ffffff;fill-opacity:1;fill-rule:nonzero;stroke:none;stroke-width:0.1"
       id="path340"
       inkscape:connector-curvature="0" /><path
       d="m 366.28581,220.78369 c -1.037,3.329 -1.621,5.21 -1.75,5.645 -0.129,0.438 -0.225,0.783 -0.282,1.036 -0.232,-0.901 -0.896,-3.128 -1.996,-6.681 z m 1.902,-6.416 -1.121,3.672 h -5.633 l -1.121,-3.672 h -3.531 l 5.453,15.493 h 4.008 l 5.476,-15.493 h -3.531"
       style="fill:#ffffff;fill-opacity:1;fill-rule:nonzero;stroke:none;stroke-width:0.1"
       id="path342"
       inkscape:connector-curvature="0" /><path
       d="m 388.18581,214.36769 h -8.902 v 15.43 h 8.902 v -2.682 h -5.625 v -3.388 h 5.233 v -2.68 h -5.233 v -3.979 h 5.625 v -2.701"
       style="fill:#ffffff;fill-opacity:1;fill-rule:nonzero;stroke:none;stroke-width:0.1"
       id="path344"
       inkscape:connector-curvature="0" /><path
       d="m 403.08681,214.36769 h -3.278 v 12.706 h -4.195 v 2.724 h 11.67 v -2.724 h -4.197 v -12.706"
       style="fill:#ffffff;fill-opacity:1;fill-rule:nonzero;stroke:none;stroke-width:0.1"
       id="path346"
       inkscape:connector-curvature="0" /><path
       d="m 418.56281,214.36769 h -8.9 v 15.43 h 8.9 v -2.682 h -5.625 v -3.388 h 5.234 v -2.68 h -5.234 v -3.979 h 5.625 v -2.701"
       style="fill:#ffffff;fill-opacity:1;fill-rule:nonzero;stroke:none;stroke-width:0.1"
       id="path348"
       inkscape:connector-curvature="0" /><path
       d="m 438.44181,226.03969 c -1.232,0 -2.187,-0.462 -2.863,-1.387 -0.678,-0.926 -1.016,-2.217 -1.016,-3.87 0,-3.44 1.293,-5.159 3.879,-5.159 1.086,0 2.399,0.27 3.944,0.811 v -2.743 c -1.27,-0.528 -2.686,-0.792 -4.25,-0.792 -2.249,0 -3.969,0.682 -5.159,2.043 -1.191,1.36 -1.787,3.315 -1.787,5.862 0,1.605 0.293,3.01 0.877,4.217 0.586,1.206 1.426,2.133 2.522,2.774 1.095,0.644 2.38,0.967 3.853,0.967 1.502,0 3.01,-0.362 4.526,-1.088 l -1.059,-2.66 c -0.578,0.275 -1.158,0.515 -1.744,0.719 -0.586,0.205 -1.158,0.306 -1.723,0.306"
       style="fill:#ffffff;fill-opacity:1;fill-rule:nonzero;stroke:none;stroke-width:0.1"
       id="path350"
       inkscape:connector-curvature="0" /><path
       d="m 449.42581,214.36769 h -4.166 l -6.722,11.672 h -0.096 c 0.135,-2.062 0.201,-3.532 0.201,-4.411 v -7.261 h -2.928 v 15.43 h 4.133 l 6.713,-11.557 h 0.074 c -0.105,2.005 -0.16,3.422 -0.16,4.254 v 7.303 h 2.951 v -15.43"
       style="fill:#ffffff;fill-opacity:1;fill-rule:nonzero;stroke:none;stroke-width:0.1"
       id="path352"
       inkscape:connector-curvature="0" /><path
       d="m 456.06481,222.10269 c 0,-1.723 0.328,-3.02 0.982,-3.893 0.657,-0.873 1.637,-1.311 2.94,-1.311 2.613,0 3.922,1.736 3.922,5.204 0,3.475 -1.301,5.214 -3.901,5.214 -1.302,0 -2.287,-0.439 -2.949,-1.314 -0.664,-0.875 -0.994,-2.176 -0.994,-3.9 z m 11.279,0 c 0,-2.554 -0.634,-4.517 -1.904,-5.889 -1.268,-1.372 -3.086,-2.058 -5.453,-2.058 -2.367,0 -4.186,0.686 -5.455,2.058 -1.268,1.372 -1.903,3.344 -1.903,5.911 0,2.568 0.635,4.529 1.909,5.883 1.273,1.354 3.095,2.031 5.47,2.031 2.375,0 4.192,-0.681 5.45,-2.046 1.259,-1.366 1.886,-3.329 1.886,-5.89"
       style="fill:#ffffff;fill-opacity:1;fill-rule:nonzero;stroke:none;stroke-width:0.1"
       id="path354"
       inkscape:connector-curvature="0" /><path
       d="m 470.54681,214.36769 v 15.43 h 3.278 v -12.729 h 6.269 v -2.701 h -9.547"
       style="fill:#ffffff;fill-opacity:1;fill-rule:nonzero;stroke:none;stroke-width:0.1"
       id="path356"
       inkscape:connector-curvature="0" /><path
       d="m 485.52781,222.10269 c 0,-1.723 0.328,-3.02 0.984,-3.893 0.657,-0.873 1.633,-1.311 2.936,-1.311 2.617,0 3.926,1.736 3.926,5.204 0,3.475 -1.303,5.214 -3.903,5.214 -1.304,0 -2.287,-0.439 -2.951,-1.314 -0.66,-0.875 -0.992,-2.176 -0.992,-3.9 z m 11.279,0 c 0,-2.554 -0.633,-4.517 -1.902,-5.889 -1.268,-1.372 -3.086,-2.058 -5.457,-2.058 -2.365,0 -4.184,0.686 -5.451,2.058 -1.272,1.372 -1.905,3.344 -1.905,5.911 0,2.568 0.635,4.529 1.907,5.883 1.273,1.354 3.097,2.031 5.472,2.031 2.373,0 4.192,-0.681 5.45,-2.046 1.257,-1.366 1.886,-3.329 1.886,-5.89"
       style="fill:#ffffff;fill-opacity:1;fill-rule:nonzero;stroke:none;stroke-width:0.1"
       id="path358"
       inkscape:connector-curvature="0" /><path
       d="m 505.96481,223.03369 h 6.131 v -8 c -0.992,-0.326 -1.927,-0.552 -2.806,-0.682 -0.877,-0.129 -1.776,-0.196 -2.69,-0.196 -2.334,0 -4.115,0.684 -5.344,2.053 -1.23,1.368 -1.843,3.333 -1.843,5.894 0,2.491 0.711,4.432 2.138,5.826 1.426,1.394 3.405,2.09 5.936,2.09 1.586,0 3.115,-0.316 4.59,-0.949 l -1.09,-2.618 c -1.129,0.562 -2.303,0.844 -3.52,0.844 -1.418,0 -2.552,-0.475 -3.406,-1.425 -0.853,-0.949 -1.275,-2.227 -1.275,-3.832 0,-1.672 0.342,-2.952 1.027,-3.836 0.688,-0.881 1.686,-1.323 3,-1.323 0.684,0 1.375,0.07 2.08,0.211 v 3.218 h -2.928 v 2.725"
       style="fill:#ffffff;fill-opacity:1;fill-rule:nonzero;stroke:none;stroke-width:0.1"
       id="path360"
       inkscape:connector-curvature="0" /><path
       d="m 515.77581,214.36769 v 15.43 h 3.275 v -15.43 h -3.275"
       style="fill:#ffffff;fill-opacity:1;fill-rule:nonzero;stroke:none;stroke-width:0.1"
       id="path362"
       inkscape:connector-curvature="0" /><path
       d="m 530.54181,220.78369 c -1.038,3.329 -1.621,5.21 -1.752,5.645 -0.129,0.438 -0.223,0.783 -0.28,1.036 -0.232,-0.901 -0.898,-3.128 -1.996,-6.681 z m 1.9,-6.416 -1.119,3.672 h -5.635 l -1.119,-3.672 h -3.531 l 5.453,15.493 h 4.008 l 5.476,-15.493 h -3.533"
       style="fill:#ffffff;fill-opacity:1;fill-rule:nonzero;stroke:none;stroke-width:0.1"
       id="path364"
       inkscape:connector-curvature="0" /><path
       d="m 129.04181,198.31669 h 5.553 v -7.931 c -0.862,-0.275 -1.742,-0.484 -2.637,-0.625 -0.893,-0.141 -1.93,-0.211 -3.105,-0.211 -2.474,0 -4.4,0.735 -5.778,2.203 -1.378,1.469 -2.067,3.526 -2.067,6.173 0,1.697 0.341,3.181 1.023,4.458 0.681,1.275 1.663,2.249 2.945,2.922 1.28,0.672 2.781,1.008 4.502,1.008 1.744,0 3.367,-0.318 4.872,-0.958 l -0.738,-1.673 c -1.474,0.625 -2.893,0.937 -4.256,0.937 -1.989,0 -3.543,-0.591 -4.66,-1.774 -1.118,-1.183 -1.676,-2.823 -1.676,-4.92 0,-2.2 0.538,-3.869 1.614,-5.008 1.076,-1.136 2.657,-1.706 4.743,-1.706 1.134,0 2.238,0.13 3.319,0.389 v 5.021 h -3.654 v 1.695"
       style="fill:#ffffff;fill-opacity:1;fill-rule:nonzero;stroke:none;stroke-width:0.1"
       id="path366"
       inkscape:connector-curvature="0" /><path
       d="m 139.47881,195.89669 c 0,-1.561 0.313,-2.752 0.938,-3.57 0.625,-0.818 1.545,-1.227 2.761,-1.227 1.213,0 2.135,0.407 2.764,1.222 0.629,0.814 0.945,2.005 0.945,3.575 0,1.554 -0.316,2.735 -0.945,3.541 -0.629,0.807 -1.559,1.212 -2.787,1.212 -1.215,0 -2.131,-0.398 -2.748,-1.194 -0.619,-0.796 -0.928,-1.983 -0.928,-3.559 z m 9.33,0 c 0,-1.994 -0.504,-3.548 -1.51,-4.669 -1.003,-1.119 -2.394,-1.678 -4.168,-1.678 -1.093,0 -2.066,0.256 -2.916,0.77 -0.848,0.512 -1.504,1.248 -1.966,2.209 -0.461,0.958 -0.692,2.082 -0.692,3.368 0,1.992 0.499,3.545 1.497,4.656 0.997,1.112 2.384,1.669 4.158,1.669 1.712,0 3.072,-0.57 4.082,-1.706 1.009,-1.139 1.515,-2.678 1.515,-4.619"
       style="fill:#ffffff;fill-opacity:1;fill-rule:nonzero;stroke:none;stroke-width:0.1"
       id="path368"
       inkscape:connector-curvature="0" /><path
       d="m 153.91481,189.77169 h -1.856 v 12.227 h 1.856 z m -2.01,15.54 c 0,0.422 0.103,0.735 0.31,0.931 0.209,0.197 0.469,0.296 0.784,0.296 0.297,0 0.554,-0.101 0.769,-0.301 0.217,-0.202 0.326,-0.51 0.326,-0.926 0,-0.417 -0.109,-0.727 -0.326,-0.932 -0.215,-0.204 -0.472,-0.307 -0.769,-0.307 -0.315,0 -0.575,0.103 -0.784,0.307 -0.207,0.205 -0.31,0.515 -0.31,0.932"
       style="fill:#ffffff;fill-opacity:1;fill-rule:nonzero;stroke:none;stroke-width:0.1"
       id="path370"
       inkscape:connector-curvature="0" /><path
       d="m 160.75281,203.89369 c 0.359,0.462 0.744,1.02 1.156,1.673 0.414,0.655 0.74,1.224 0.978,1.709 h 2.258 v -0.236 c -0.328,-0.484 -0.816,-1.077 -1.465,-1.785 -0.648,-0.705 -1.211,-1.253 -1.685,-1.639 h -1.242 z m 0.437,-12.816 c 1.152,0 2.061,0.317 2.719,0.948 0.66,0.633 0.99,1.516 0.99,2.655 v 1.104 l -1.855,-0.078 c -1.475,-0.052 -2.538,-0.281 -3.19,-0.685 -0.652,-0.407 -0.978,-1.036 -0.978,-1.891 0,-0.67 0.203,-1.18 0.609,-1.53 0.406,-0.349 0.975,-0.523 1.705,-0.523 z m 4.189,-1.306 -0.369,1.741 h -0.089 c -0.612,-0.767 -1.219,-1.286 -1.827,-1.556 -0.607,-0.27 -1.365,-0.407 -2.273,-0.407 -1.215,0 -2.168,0.313 -2.856,0.937 -0.689,0.624 -1.033,1.512 -1.033,2.666 0,2.469 1.979,3.762 5.932,3.883 l 2.08,0.065 v 0.759 c 0,0.959 -0.209,1.668 -0.621,2.126 -0.414,0.457 -1.074,0.686 -1.985,0.686 -1.019,0 -2.173,-0.313 -3.462,-0.939 l -0.571,1.418 c 0.606,0.327 1.266,0.583 1.985,0.769 0.718,0.187 1.439,0.28 2.162,0.28 1.461,0 2.541,-0.324 3.246,-0.972 0.703,-0.647 1.055,-1.684 1.055,-3.111 v -8.345 h -1.374"
       style="fill:#ffffff;fill-opacity:1;fill-rule:nonzero;stroke:none;stroke-width:0.1"
       id="path372"
       inkscape:connector-curvature="0" /><path
       d="m 178.47481,193.10669 c 0,-1.136 -0.426,-2.013 -1.273,-2.632 -0.85,-0.617 -2.043,-0.925 -3.576,-0.925 -1.623,0 -2.891,0.256 -3.799,0.77 v 1.717 c 0.588,-0.297 1.219,-0.532 1.892,-0.702 0.676,-0.172 1.325,-0.257 1.952,-0.257 0.968,0 1.712,0.154 2.234,0.464 0.521,0.308 0.781,0.778 0.781,1.409 0,0.477 -0.207,0.884 -0.619,1.222 -0.414,0.339 -1.221,0.739 -2.42,1.198 -1.139,0.425 -1.949,0.796 -2.43,1.11 -0.48,0.317 -0.838,0.676 -1.072,1.078 -0.234,0.402 -0.353,0.881 -0.353,1.439 0,0.997 0.408,1.784 1.218,2.359 0.813,0.577 1.926,0.865 3.342,0.865 1.319,0 2.606,-0.269 3.865,-0.803 l -0.658,-1.506 c -1.23,0.506 -2.344,0.759 -3.342,0.759 -0.879,0 -1.541,-0.138 -1.99,-0.413 -0.445,-0.275 -0.67,-0.656 -0.67,-1.14 0,-0.325 0.084,-0.604 0.252,-0.834 0.168,-0.232 0.438,-0.452 0.811,-0.66 0.373,-0.207 1.088,-0.508 2.144,-0.904 1.453,-0.527 2.434,-1.06 2.946,-1.594 0.509,-0.536 0.765,-1.208 0.765,-2.02"
       style="fill:#ffffff;fill-opacity:1;fill-rule:nonzero;stroke:none;stroke-width:0.1"
       id="path374"
       inkscape:connector-curvature="0" /></g></svg>